<svg width="578" height="368" viewBox="0 0 578 368" fill="none" xmlns="http://www.w3.org/2000/svg"><path d="M577.779-42S531.98 6.701 493.062 25.886c-54.65 26.94-105.562 14.168-157.186 25.97-35.805 8.185-60.016 14.782-84.207 40.093-27.685 28.967-2.9 64.162-29.6 93.856-23.943 26.628-57.929 19.839-84.207 44.65-27.986 26.422-19.096 56.425-46.441 83.376-32.58 32.111-108.704 53.762-108.704 53.762V-42H577.78Z" fill="#A9E9BB"/><path d="M230.234-42s-8.788 50.99-35.724 67.43c-30.108 18.377-67.912-23.296-93.393 0-27.128 24.803 37.599 64.76 9.186 88.389-13.433 11.171-36.618-.015-43.89 15.035-4.025 8.332 4.386 15.049 0 23.236-6.384 11.918-19.502 12.989-34.192 14.579C12.387 168.816-28 147.078-28 147.078" stroke="#fff" stroke-width="3"/><path d="M-17.793 327.044s62.667 29.698 102.58 20.958c24.536-5.373 41.231-10.493 56.137-28.703 14.693-17.951-.877-37.611 13.779-55.585 22.269-27.308 61.729-5.435 92.883-24.603 12.783-7.865 20.401-12.527 29.6-23.691 20.134-24.435-3.612-51.049 14.8-76.543 18.413-25.494 91.215-38.411 126.514-51.211 35.299-12.8 54.907-29.732 75.072-58.59 17.026-24.366 22.966-70.62 22.966-70.62" stroke="#69B675" stroke-width="3"/></svg>
