<svg width="488" height="337" viewBox="0 0 488 337" fill="none" xmlns="http://www.w3.org/2000/svg"><path d="M498.979 7.293s-2.316 102.302-50.524 140.783c-44.538 35.552-99.054 2.878-148.51 32.804-36.72 22.219-40.698 50.908-74.51 76.542-31.61 23.966-52.594 34.258-89.821 50.573C85.77 329.841.373 347.178.373 347.178h498.606V7.293Z" fill="#A9E9BB"/><path d="M297.393 347.178s13.979-60.728 48.483-72.442c32.124-10.907 55.624 35.179 85.227 19.591 20.463-10.775 13.794-31.956 30.621-46.928 11.669-10.383 34.704-21.414 34.704-21.414" stroke="#fff" stroke-width="3"/><path d="M500 .914c-6.634 36.904-71.994 28.902-98.496 64.241-14.458 19.278-6.7 39.166-26.028 54.673-30.537 24.5-69.575-18.325-105.131 0-35.198 18.141-35.501 47.257-52.566 80.188-11.919 23.002-12.104 38.509-26.027 60.596-26.889 42.654-100.538 87.477-100.538 87.477" stroke="#69B675" stroke-width="3"/></svg>
