<svg width="598" height="248" viewBox="0 0 598 248" fill="none" xmlns="http://www.w3.org/2000/svg"><path d="M121.021 260s-70.766-34.777-83.187-74.264c-9.77-31.064 11.228-82.01 11.228-82.01s26.38-76.049 71.959-93.856c34.508-13.482 61.629-12.815 96.455 0 30.789 11.33 31.902 41.075 63.283 51.029 27.418 8.696 46.706-7.662 74.51 0 46.204 12.732 66.67 40.324 85.227 80.187 10.291 22.104 1.409 38.672 13.269 60.14 17.11 30.97 74 58.774 74 58.774H121.021Z" fill="#A9E9BB"/><path d="M105.71 141.086c-5.678-31.574 16.263-59.014 50.524-68.342 38.038-10.355 50.723 36.346 89.821 42.828 47.73 7.912 93.248-56.352 121.973-21.414 28.649 34.847-17.436 74.871-58.69 97.501-42.962 23.566-82.267 16.643-129.117 0-33.963-12.065-68.716-18.353-74.511-50.573Z" stroke="#fff" stroke-width="3"/><path d="M-17 139.038s12.614-34.547 26.563-53.761C33.213 52.7 52.423 33.263 92.83 19.929c55.263-18.237 89.978 18.233 148.653 21.783 41.8 2.529 69.525-16.482 107.275 0 45.072 19.679 27.842 72.879 69.984 97.326 32.733 18.988 63.097 3.851 96.547 21.782C560.976 185.311 596 260 596 260" stroke="#69B675" stroke-width="3"/></svg>
