<svg width="80" height="70" viewBox="0 0 80 70" fill="none" xmlns="http://www.w3.org/2000/svg">
    <path d="M29.645 3.78499C29.8137 3.50331 29.9254 3.19114 29.9735 2.86632C30.0216 2.5415 30.0052 2.21039 29.9254 1.89188C29.8455 1.57338 29.7037 1.27372 29.508 1.01002C29.3124 0.746319 29.0667 0.523741 28.785 0.354992C28.5033 0.186244 28.1912 0.0746294 27.8663 0.0265224C27.5415 -0.0215847 27.2104 -0.00524222 26.8919 0.0746162C26.5734 0.154475 26.2737 0.296285 26.01 0.491951C25.7463 0.687617 25.5237 0.933307 25.355 1.21499L11.085 25H2.5C1.83696 25 1.20107 25.2634 0.732233 25.7322C0.263392 26.2011 0 26.837 0 27.5L0 32.5C0 33.163 0.263392 33.7989 0.732233 34.2678C1.20107 34.7366 1.83696 35 2.5 35H5.615L14.835 67.28C15.0593 68.0651 15.5337 68.7556 16.1861 69.2465C16.8386 69.7374 17.6335 70.002 18.45 70H61.56C62.3757 70.0009 63.1694 69.7359 63.8209 69.245C64.4723 68.7542 64.946 68.0643 65.17 67.28L74.385 35H77.5C78.163 35 78.7989 34.7366 79.2678 34.2678C79.7366 33.7989 80 33.163 80 32.5V27.5C80 26.837 79.7366 26.2011 79.2678 25.7322C78.7989 25.2634 78.163 25 77.5 25H68.915L54.65 1.21499C54.4813 0.933307 54.2587 0.687617 53.995 0.491951C53.7313 0.296285 53.4316 0.154475 53.1131 0.0746162C52.7946 -0.00524222 52.4635 -0.0215847 52.1387 0.0265224C51.8139 0.0746294 51.5017 0.186244 51.22 0.354992C50.9383 0.523741 50.6926 0.746319 50.497 1.01002C50.3013 1.27372 50.1595 1.57338 50.0796 1.89188C49.9998 2.21039 49.9834 2.5415 50.0315 2.86632C50.0796 3.19114 50.1912 3.50331 50.36 3.78499L63.085 25H16.915L29.65 3.78499H29.645ZM20 45C20 43.6739 20.5268 42.4021 21.4645 41.4645C22.4021 40.5268 23.6739 40 25 40C26.3261 40 27.5979 40.5268 28.5355 41.4645C29.4732 42.4021 30 43.6739 30 45V55C30 56.3261 29.4732 57.5978 28.5355 58.5355C27.5979 59.4732 26.3261 60 25 60C23.6739 60 22.4021 59.4732 21.4645 58.5355C20.5268 57.5978 20 56.3261 20 55V45ZM35 45C35 43.6739 35.5268 42.4021 36.4645 41.4645C37.4021 40.5268 38.6739 40 40 40C41.3261 40 42.5979 40.5268 43.5355 41.4645C44.4732 42.4021 45 43.6739 45 45V55C45 56.3261 44.4732 57.5978 43.5355 58.5355C42.5979 59.4732 41.3261 60 40 60C38.6739 60 37.4021 59.4732 36.4645 58.5355C35.5268 57.5978 35 56.3261 35 55V45ZM55 40C56.3261 40 57.5979 40.5268 58.5355 41.4645C59.4732 42.4021 60 43.6739 60 45V55C60 56.3261 59.4732 57.5978 58.5355 58.5355C57.5979 59.4732 56.3261 60 55 60C53.6739 60 52.4021 59.4732 51.4645 58.5355C50.5268 57.5978 50 56.3261 50 55V45C50 43.6739 50.5268 42.4021 51.4645 41.4645C52.4021 40.5268 53.6739 40 55 40Z" fill="#8A958D"/>
</svg>
