<svg width="25" height="21" viewBox="0 0 25 21" fill="none" xmlns="http://www.w3.org/2000/svg">
<path d="M24.1057 17.3109V2.62955C24.1057 2.14283 23.9112 1.67604 23.565 1.33188C23.2188 0.987721 22.7492 0.794373 22.2596 0.794373H1.95187C1.46224 0.794373 0.99266 0.987721 0.646439 1.33188C0.300218 1.67604 0.105713 2.14283 0.105713 2.62955V19.1461C0.105713 19.6328 0.300218 20.0996 0.646439 20.4438C0.99266 20.7879 1.46224 20.9813 1.95187 20.9813H22.2596C22.7492 20.9813 23.2188 20.7879 23.565 20.4438C23.9112 20.0996 24.1057 19.6328 24.1057 19.1461V17.3109ZM22.2596 2.62955V15.0973L18.948 11.8054C18.6005 11.465 18.1321 11.2742 17.6442 11.2742C17.1562 11.2742 16.6879 11.465 16.3403 11.8054L13.9519 14.1797L8.79418 9.05266C8.44661 8.71223 7.97826 8.5214 7.49033 8.5214C7.00239 8.5214 6.53404 8.71223 6.18648 9.05266L1.95187 13.2621V2.62955H22.2596ZM22.2596 19.1461H1.95187V15.8543L7.49033 10.3487L12.648 15.4758C12.8186 15.6471 13.0217 15.7831 13.2455 15.8759C13.4693 15.9687 13.7094 16.0165 13.9519 16.0165C14.1944 16.0165 14.4345 15.9687 14.6582 15.8759C14.882 15.7831 15.0851 15.6471 15.2557 15.4758L17.6442 13.1015L22.2596 17.6894V19.1461ZM14.3557 8.65121C14.2267 8.52344 14.1246 8.37145 14.0553 8.20407C13.9859 8.0367 13.9508 7.85728 13.9519 7.67628C13.9519 7.31124 14.0977 6.96115 14.3574 6.70303C14.6171 6.44491 14.9693 6.2999 15.3365 6.2999C15.7037 6.2999 16.0559 6.44491 16.3156 6.70303C16.5752 6.96115 16.7211 7.31124 16.7211 7.67628C16.7211 8.04131 16.5752 8.3914 16.3156 8.64952C16.0559 8.90765 15.7037 9.05266 15.3365 9.05266C14.9697 9.04987 14.6182 8.906 14.3557 8.65121Z" fill="#8A958D"/>
</svg>
